<svg width="38" height="37" viewBox="0 0 38 37" fill="none" xmlns="http://www.w3.org/2000/svg">
<path d="M18.9146 36.5731C22.5116 36.5731 26.0279 35.5065 29.0187 33.5081C32.0096 31.5097 34.3406 28.6693 35.7172 25.346C37.0937 22.0228 37.4538 18.366 36.7521 14.8381C36.0503 11.3102 34.3182 8.06955 31.7747 5.52606C29.2312 2.98257 25.9906 1.25043 22.4627 0.548684C18.9348 -0.153064 15.278 0.207099 11.9548 1.58363C8.63153 2.96015 5.79111 5.29122 3.7927 8.28205C1.7943 11.2729 0.72765 14.7891 0.72765 18.3862C0.72765 23.2097 2.64377 27.8356 6.05448 31.2463C9.4652 34.657 14.0911 36.5731 18.9146 36.5731ZM18.9146 2.62415C22.032 2.62415 25.0795 3.54858 27.6715 5.28053C30.2636 7.01249 32.2838 9.47418 33.4768 12.3543C34.6698 15.2344 34.9819 18.4037 34.3738 21.4612C33.7656 24.5187 32.2644 27.3273 30.06 29.5316C27.8557 31.736 25.0472 33.2372 21.9896 33.8453C18.9321 34.4535 15.7629 34.1414 12.8827 32.9484C10.0026 31.7554 7.54091 29.7351 5.80895 27.1431C4.077 24.551 3.15258 21.5036 3.15258 18.3862C3.15258 14.2058 4.81321 10.1967 7.76917 7.24074C10.7251 4.28479 14.7343 2.62415 18.9146 2.62415Z" fill="black"/>
<path d="M18.9146 2.62415C22.032 2.62415 25.0795 3.54858 27.6715 5.28053C30.2636 7.01249 32.2838 9.47418 33.4768 12.3543C34.6698 15.2344 34.9819 18.4037 34.3738 21.4612C33.7656 24.5187 32.2644 27.3273 30.06 29.5316C27.8557 31.736 25.0472 33.2372 21.9896 33.8453C18.9321 34.4535 15.7629 34.1414 12.8827 32.9484C10.0026 31.7554 7.54091 29.7351 5.80895 27.1431C4.077 24.551 3.15258 21.5036 3.15258 18.3862C3.15258 14.2058 4.81321 10.1967 7.76917 7.24074C10.7251 4.28479 14.7343 2.62415 18.9146 2.62415Z" fill="#FECCF6"/>
<path d="M14.7687 30.3169C15.0898 30.3156 15.3972 30.1869 15.6235 29.9593L26.3417 19.2411C26.4544 19.1285 26.5438 18.9948 26.6048 18.8476C26.6659 18.7004 26.6973 18.5426 26.6973 18.3833C26.6973 18.2239 26.6659 18.0661 26.6048 17.919C26.5438 17.7718 26.4544 17.638 26.3417 17.5254L15.6296 6.81333C15.402 6.58582 15.0935 6.45801 14.7717 6.45801C14.45 6.45801 14.1414 6.58582 13.9139 6.81333C13.6864 7.04083 13.5586 7.3494 13.5586 7.67115C13.5586 7.99289 13.6864 8.30146 13.9139 8.52896L23.7652 18.3863L13.9139 28.2436C13.7454 28.4132 13.6307 28.6287 13.5844 28.8633C13.538 29.0978 13.562 29.3408 13.6533 29.5617C13.7447 29.7826 13.8993 29.9716 14.0978 30.1049C14.2962 30.2382 14.5296 30.3099 14.7687 30.3109V30.3169Z" fill="black"/>
</svg>
