<svg width="47" height="46" viewBox="0 0 47 46" fill="none" xmlns="http://www.w3.org/2000/svg">
<path d="M35.9064 23.8506C32.9159 23.8401 30.0552 25.0717 28.0078 27.2517C25.063 24.9023 21.4044 23.629 17.6374 23.6432H17.6077C13.0802 23.6528 8.87875 25.4127 5.76487 28.6156C2.60122 31.8485 0.871316 36.2672 0.880899 41.0618C0.882754 41.3243 0.985695 41.5753 1.16777 41.7635C1.35356 41.9496 1.60643 42.0532 1.8695 42.0504L27.8198 42.001C27.8792 42.0702 27.9382 42.1296 27.9979 42.1988C31.4048 45.8045 36.8205 46.6478 41.1629 44.2493C45.5053 41.8504 47.6747 36.8177 46.4367 32.0138C45.1986 27.2099 40.8674 23.8522 35.9064 23.8506ZM2.88778 40.0633C3.09552 36.1782 4.59821 32.6293 7.17822 29.99C9.91681 27.1725 13.6239 25.6204 17.6077 25.6204H17.6374C20.9624 25.6074 24.1922 26.7302 26.7917 28.8035C24.6015 32.1863 24.4571 36.5021 26.4161 40.0241L2.88778 40.0633ZM35.9064 43.6224C30.9925 43.6224 27.0093 39.6389 27.0093 34.7249C27.0093 29.8116 30.9925 25.8278 35.9064 25.8278C40.8204 25.8278 44.8035 29.8116 44.8035 34.7249C44.8035 39.6389 40.8204 43.6224 35.9064 43.6224Z" fill="black"/>
<path d="M17.6172 21.2904C23.3881 21.2904 28.0665 16.612 28.0665 10.8412C28.0665 5.07 23.3881 0.391602 17.6172 0.391602C11.8464 0.391602 7.16797 5.07 7.16797 10.8412C7.17353 16.6096 11.8485 21.2849 17.6172 21.2904ZM17.6172 2.36881C22.2966 2.36881 26.0893 6.16216 26.0893 10.8412C26.0893 15.5199 22.2966 19.3132 17.6172 19.3132C12.9382 19.3132 9.14517 15.5199 9.14517 10.8412C9.15074 6.16432 12.9404 2.37468 17.6172 2.36881Z" fill="black"/>
<path d="M39.2372 31.7098L34.4621 35.595L32.7124 33.5485C32.3575 33.1334 31.7337 33.0848 31.3188 33.4397C30.9037 33.7946 30.8551 34.4187 31.21 34.8339L33.5826 37.6115C33.7709 37.8303 34.0451 37.9568 34.3341 37.9574C34.5604 37.9598 34.7805 37.8826 34.9564 37.74L40.483 33.2419C40.9004 32.8969 40.9613 32.2792 40.6197 31.8588C40.2775 31.4381 39.6608 31.3719 39.2372 31.7098Z" fill="black"/>
</svg>
