<svg width="38" height="38" viewBox="0 0 38 38" fill="none" xmlns="http://www.w3.org/2000/svg">
<path d="M27.9823 28.7048C24.7143 31.9728 20.7053 34.5054 16.3888 36.0289C13.1133 37.185 9.72894 37.7654 6.28322 37.7654C4.90502 37.7654 3.51654 37.6725 2.12203 37.4864C0.958771 37.3312 0.123714 36.2567 0.260616 35.0911L1.32089 26.0579C1.44896 24.9669 2.37075 24.1479 3.46789 24.1479C3.47199 24.1479 3.47615 24.1479 3.48025 24.1479C5.16157 24.1573 7.51842 24.0553 10.4844 23.8446C11.1889 23.7946 11.8286 24.0633 12.2857 24.6016L14.3892 27.0788C14.6022 27.3294 14.9341 27.4056 15.2346 27.2727C19.8553 25.231 24.5085 20.5778 26.5502 15.9571C26.6832 15.6563 26.6071 15.3246 26.3564 15.1117L23.8793 13.008C23.341 12.551 23.0721 11.9112 23.1221 11.2068C23.3328 8.24095 23.4349 5.8844 23.4254 4.20257C23.4193 3.10011 24.2404 2.17178 25.3354 2.04321L34.3685 0.983009C35.5342 0.845822 36.6088 1.68124 36.764 2.84435C37.4153 7.72554 36.925 12.5256 35.3065 17.1112C33.7829 21.4278 31.2503 25.4368 27.9823 28.7048ZM35.3393 3.03443C35.291 2.6726 34.9773 2.40555 34.62 2.40555C34.5922 2.40555 34.5642 2.40713 34.536 2.41044L25.5031 3.47071C25.13 3.51455 24.8608 3.81896 24.8629 4.1946C24.8724 5.91286 24.7691 8.30642 24.5559 11.3087C24.5384 11.5552 24.6215 11.7527 24.8097 11.9126L27.2869 14.0163C28.0231 14.6413 28.2554 15.6548 27.865 16.5381C25.6909 21.4584 20.736 26.4133 15.8156 28.5875C14.9324 28.9778 13.919 28.7453 13.2938 28.0093L11.1903 25.5321C11.0304 25.3439 10.8329 25.2604 10.5863 25.2784C7.58388 25.4917 5.18975 25.5947 3.47228 25.5853C3.09758 25.5824 2.79223 25.8524 2.74839 26.2256L1.68805 35.2586C1.64219 35.6494 1.9221 36.0096 2.31211 36.0616C3.63203 36.2377 4.94778 36.3246 6.25476 36.3246C13.9869 36.3243 21.3721 33.2823 26.966 27.6885C33.5055 21.149 36.5574 12.163 35.3393 3.03443Z" fill="black"/>
<path d="M35.3393 3.03443C35.291 2.6726 34.9773 2.40555 34.62 2.40555C34.5922 2.40555 34.5642 2.40713 34.536 2.41044L25.5031 3.47071C25.13 3.51455 24.8608 3.81896 24.8629 4.1946C24.8724 5.91286 24.7691 8.30642 24.5559 11.3087C24.5384 11.5552 24.6215 11.7527 24.8097 11.9126L27.2869 14.0163C28.0231 14.6413 28.2554 15.6548 27.865 16.5381C25.6909 21.4584 20.736 26.4133 15.8156 28.5875C14.9324 28.9778 13.919 28.7453 13.2938 28.0093L11.1903 25.5321C11.0304 25.3439 10.8329 25.2604 10.5863 25.2784C7.58388 25.4917 5.18975 25.5947 3.47228 25.5853C3.09758 25.5824 2.79223 25.8524 2.74839 26.2256L1.68805 35.2586C1.64219 35.6494 1.9221 36.0096 2.31211 36.0616C3.63203 36.2377 4.94778 36.3246 6.25476 36.3246C13.9869 36.3243 21.3721 33.2823 26.966 27.6885C33.5055 21.149 36.5574 12.163 35.3393 3.03443Z" fill="black"/>
</svg>
