<svg width="152" height="38" viewBox="0 0 152 38" fill="none" xmlns="http://www.w3.org/2000/svg">
<rect x="0.265625" y="0.934082" width="151.255" height="36.5324" rx="7.49046" fill="white"/>
<path d="M14.3413 8.60697C13.4806 8.73181 12.8038 8.87636 12.2716 9.06034C9.31482 10.0591 7.13996 12.523 6.45005 15.6375C6.29892 16.3471 6.2595 17.8715 6.37777 18.6534C6.85742 21.7547 8.87459 24.3304 11.7459 25.5262C13.4609 26.2424 15.5306 26.3738 17.3769 25.8745C18.1194 25.6773 18.9341 25.3422 19.4992 25.0006L19.9263 24.7377L22.2589 27.0637C23.7898 28.5815 24.69 29.4291 24.874 29.5277C26.0369 30.1059 27.3839 29.2583 27.3839 27.9573C27.3773 27.2083 27.3511 27.1689 24.782 24.5932L22.4494 22.2541L22.8174 21.5642C23.573 20.1252 23.8555 19.0148 23.8621 17.4378C23.8687 15.033 23.0605 13.0158 21.4113 11.3009C20.13 9.97365 18.5728 9.1129 16.8053 8.75809C16.2008 8.63982 14.7487 8.54783 14.3413 8.60697ZM16.6082 11.4323C18.6319 11.9317 20.3337 13.5415 20.9447 15.5324C21.3061 16.7151 21.3456 17.6349 21.0696 18.8045C20.5637 21.0057 18.8159 22.7797 16.5885 23.3711C15.8263 23.5682 14.315 23.5682 13.566 23.3645C12.4884 23.0688 11.4831 22.484 10.7144 21.7021C10.1559 21.1371 9.87989 20.7363 9.53822 20.0266C8.29638 17.4378 9.01257 14.3628 11.2729 12.5625C11.8182 12.1354 12.8695 11.5966 13.52 11.4257C14.4793 11.1695 15.5503 11.1695 16.6082 11.4323Z" fill="black"/>
</svg>
