<svg width="56" height="53" viewBox="0 0 56 53" fill="none" xmlns="http://www.w3.org/2000/svg">
<path d="M12.7346 52.9058C12.1368 52.9058 11.5433 52.7193 11.0367 52.353C10.093 51.6691 9.65223 50.4936 9.90906 49.3593L13.4189 33.8985L1.51576 23.4597C0.640798 22.6959 0.306548 21.4863 0.665773 20.3795C1.025 19.2747 2.00236 18.4926 3.15954 18.3856L18.9088 16.9558L25.1356 2.38406C25.5947 1.31346 26.6403 0.62207 27.8021 0.62207C28.9638 0.62207 30.0094 1.31346 30.4686 2.38157L36.6953 16.9558L52.4421 18.3856C53.6018 18.4901 54.5791 19.2747 54.9384 20.3795C55.2976 21.4842 54.9654 22.6959 54.0905 23.4597L42.1873 33.8964L45.6971 49.3568C45.9544 50.4936 45.5132 51.6691 44.5699 52.3509C43.6288 53.0328 42.3738 53.0852 41.3827 52.4896L27.8021 44.3739L14.2214 52.4941C13.7623 52.7668 13.2507 52.9058 12.7346 52.9058ZM27.8021 40.8778C28.3182 40.8778 28.8294 41.0164 29.2889 41.289L42.1057 48.9547L38.7932 34.3622C38.5568 33.3237 38.9093 32.2393 39.7119 31.5367L50.9511 21.6798L36.0813 20.3295C35.0107 20.2317 34.09 19.5586 33.6716 18.5721L27.8021 4.8208L21.9254 18.5742C21.5117 19.554 20.5909 20.2271 19.5228 20.3249L4.65097 21.6753L15.8898 31.5321C16.6948 32.2368 17.0469 33.3191 16.8084 34.3601L13.4984 48.9522L26.3152 41.289C26.7743 41.0164 27.2859 40.8778 27.8021 40.8778ZM18.7885 17.2376C18.7885 17.2376 18.7885 17.2401 18.786 17.2422L18.7885 17.2376ZM36.811 17.2309L36.8135 17.2355C36.8135 17.233 36.8135 17.233 36.811 17.2309Z" fill="#FB74E5"/>
</svg>
