<svg width="39" height="36" viewBox="0 0 39 36" fill="none" xmlns="http://www.w3.org/2000/svg">
<path d="M8.73635 35.0637C8.31434 35.0637 7.89528 34.9395 7.53763 34.6956C6.87141 34.2402 6.5602 33.4576 6.74152 32.7023L9.21948 22.4082L0.815818 15.4578C0.198091 14.9492 -0.0378905 14.1438 0.215724 13.4069C0.469338 12.6713 1.15936 12.1506 1.97633 12.0793L13.0954 11.1273L17.4915 1.42513C17.8156 0.712299 18.5538 0.251953 19.374 0.251953C20.1943 0.251953 20.9325 0.712299 21.2566 1.42347L25.6527 11.1273L36.77 12.0793C37.5887 12.1489 38.2788 12.6713 38.5324 13.4069C38.786 14.1424 38.5515 14.9492 37.9338 15.4578L29.5301 22.4068L32.008 32.7007C32.1897 33.4576 31.8782 34.2402 31.2122 34.6942C30.5478 35.1482 29.6617 35.1831 28.962 34.7865L19.374 29.3829L9.78607 34.7896C9.46193 34.9711 9.10075 35.0637 8.73635 35.0637ZM19.374 27.0551C19.7385 27.0551 20.0993 27.1474 20.4238 27.329L29.4725 32.4329L27.1338 22.7169C26.9669 22.0254 27.2158 21.3034 27.7824 20.8356L35.7173 14.2727L25.2192 13.3736C24.4634 13.3085 23.8133 12.8603 23.518 12.2035L19.374 3.04756L15.2251 12.2049C14.933 12.8573 14.283 13.3054 13.5289 13.3706L3.02929 14.2696L10.9639 20.8326C11.5323 21.3018 11.7809 22.0224 11.6125 22.7155L9.27561 32.4313L18.3243 27.329C18.6485 27.1474 19.0096 27.0551 19.374 27.0551ZM13.0105 11.3149C13.0105 11.3149 13.0105 11.3166 13.0087 11.318L13.0105 11.3149ZM25.7344 11.3105L25.7362 11.3136C25.7362 11.3119 25.7362 11.3119 25.7344 11.3105Z" fill="#FB74E5"/>
<path d="M19.374 27.0551C19.7385 27.0551 20.0993 27.1474 20.4238 27.329L29.4725 32.4329L27.1338 22.7169C26.9669 22.0254 27.2158 21.3034 27.7824 20.8356L35.7173 14.2727L25.2192 13.3736C24.4634 13.3085 23.8133 12.8603 23.518 12.2035L19.374 3.04756L15.2251 12.2049C14.933 12.8573 14.283 13.3054 13.5289 13.3706L3.02929 14.2696L10.9639 20.8326C11.5323 21.3018 11.7809 22.0224 11.6125 22.7155L9.27561 32.4313L18.3243 27.329C18.6485 27.1474 19.0096 27.0551 19.374 27.0551Z" fill="#FB74E5"/>
</svg>
